<svg xmlns="http://www.w3.org/2000/svg" width="199.886" height="144.89" viewBox="0 0 199.886 144.89">
  <g id="Group_6777" data-name="Group 6777" transform="translate(-880.114 -4391.428)">
    <g id="Group_6771" data-name="Group 6771" transform="translate(940.39 4387.002)">
      <g id="Group_6767" data-name="Group 6767" transform="translate(17.521 19.067)">
        <path id="Path_6788" data-name="Path 6788" d="M-25.22,104.75a2.764,2.764,0,0,0-.389-.232,4.883,4.883,0,0,1-3.631-5.246c.236-16.063.5-32.131.689-48.2.08-6.537,0-13.078,0-19.618,0-.265-.028-.529-.04-.794l-.4-.088A46.621,46.621,0,0,0-30.647,37.3a88.249,88.249,0,0,0-.325,10.6c.072,3.242-.982,4.934-3.807,5.29a5.089,5.089,0,0,1-5.779-4.324c-.89-8.216.072-16.172,3.944-23.578,3.415-6.533,8.709-10.561,16.164-11.454C-8.467,12.393.522,17.01,5.055,28.917A43,43,0,0,1,7.48,47.971c-.3,3.663-2.954,5.735-6.332,5.134a3.831,3.831,0,0,1-3.4-4.076c.008-3.222.16-6.457-.032-9.667a19.817,19.817,0,0,0-2.986-9.787c0,.4,0,.8,0,1.2q.1,9.21.192,18.42c.14,11.915.269,23.835.453,35.75.076,4.785.3,9.563.429,14.348a4.827,4.827,0,0,1-3.639,5.23,2.437,2.437,0,0,0-.393.228h-2.393c-3.335-.918-4.665-3.154-4.7-6.549-.128-11.679-.377-23.358-.581-35.037-.008-.465,0-.926,0-1.371h-1.615c0,.525,0,.958,0,1.391-.032,5.5-.008,11-.112,16.5q-.186,9.805-.565,19.6c-.112,2.886-1.455,4.425-4.2,5.258a2.782,2.782,0,0,0-.429.2Z" transform="translate(40.866 8.46)" fill="#ef8c22"/>
        <path id="Path_6789" data-name="Path 6789" d="M-27.571,8.079a9.7,9.7,0,0,1,9.627,9.711,9.734,9.734,0,0,1-9.719,9.635,9.672,9.672,0,0,1-9.6-9.727A9.645,9.645,0,0,1-27.571,8.079Z" transform="translate(51.693 -8.079)" fill="#ef8c22"/>
      </g>
      <g id="Group_6768" data-name="Group 6768" transform="translate(69.623 19.067)">
        <path id="Path_6790" data-name="Path 6790" d="M-12.22,104.75a2.764,2.764,0,0,0-.389-.232,4.883,4.883,0,0,1-3.631-5.246c.236-16.063.5-32.131.689-48.2.08-6.537,0-13.078,0-19.618,0-.265-.028-.529-.04-.794l-.4-.088A46.62,46.62,0,0,0-17.647,37.3a88.248,88.248,0,0,0-.325,10.6c.072,3.242-.982,4.934-3.807,5.29a5.089,5.089,0,0,1-5.779-4.324c-.89-8.216.072-16.172,3.944-23.578,3.415-6.533,8.709-10.561,16.164-11.454C4.533,12.393,13.522,17.01,18.055,28.917A43,43,0,0,1,20.48,47.971c-.3,3.663-2.954,5.735-6.332,5.134a3.831,3.831,0,0,1-3.4-4.076c.008-3.222.16-6.457-.032-9.667a19.817,19.817,0,0,0-2.986-9.787c0,.4,0,.8,0,1.2q.1,9.21.192,18.42c.14,11.915.269,23.835.453,35.75.076,4.785.3,9.563.429,14.348a4.827,4.827,0,0,1-3.639,5.23,2.436,2.436,0,0,0-.393.228H2.376c-3.335-.918-4.665-3.154-4.7-6.549-.128-11.679-.377-23.358-.581-35.037-.008-.465,0-.926,0-1.371H-4.521c0,.525,0,.958,0,1.391-.032,5.5-.008,11-.112,16.5q-.186,9.805-.565,19.6c-.112,2.886-1.455,4.425-4.2,5.258a2.782,2.782,0,0,0-.429.2Z" transform="translate(27.866 8.46)" fill="#ef8c22"/>
        <path id="Path_6791" data-name="Path 6791" d="M-14.571,8.079A9.7,9.7,0,0,1-4.944,17.79a9.734,9.734,0,0,1-9.719,9.635,9.672,9.672,0,0,1-9.6-9.727A9.645,9.645,0,0,1-14.571,8.079Z" transform="translate(38.693 -8.079)" fill="#ef8c22"/>
      </g>
      <rect id="Rectangle_1740" data-name="Rectangle 1740" width="151" height="52.035" rx="4.039" transform="translate(-11.39 97.281)" fill="#beecf2"/>
      <g id="Group_6770" data-name="Group 6770" transform="translate(-6.656 80.227)">
        <g id="Group_6769" data-name="Group 6769" transform="translate(0 0)">
          <rect id="Rectangle_1741" data-name="Rectangle 1741" width="63.407" height="14.208" rx="1.773" transform="translate(24.177 6.575)" fill="#006283"/>
          <rect id="Rectangle_1742" data-name="Rectangle 1742" width="63.407" height="9.793" rx="1.222" transform="translate(78.708 8.783)" fill="#006283"/>
          <rect id="Rectangle_1743" data-name="Rectangle 1743" width="36.542" height="9.75" rx="1.216" transform="translate(28.005 8.991) rotate(25.632)" fill="#006283"/>
          <rect id="Rectangle_1744" data-name="Rectangle 1744" width="31.741" height="9.75" rx="1.216" transform="translate(48.548 23.437) rotate(-13.662)" fill="#006283"/>
          <path id="Path_6792" data-name="Path 6792" d="M-46.9,33.948A10.7,10.7,0,0,1-36.2,23.339,10.723,10.723,0,0,1-25.584,34.048,10.654,10.654,0,0,1-36.3,44.629,10.626,10.626,0,0,1-46.9,33.948Z" transform="translate(46.898 -23.339)" fill="#006283"/>
        </g>
      </g>
      <path id="Path_6793" data-name="Path 6793" d="M-1.482,12.543-44.71,46.585c-8.044-10.216-4.89-26.119,7.046-35.522S-9.529,2.327-1.482,12.543Z" transform="translate(33.429 0)" fill="#006283"/>
      <path id="Path_6794" data-name="Path 6794" d="M-5.474,6.009H-42.819a4.992,4.992,0,0,0-4.97,4.513L-60.253,139.078a5,5,0,0,0,4.974,5.475h13.951a5,5,0,0,0,5-4.994V17.287a1.415,1.415,0,0,1,1.415-1.415H-5.474a4.932,4.932,0,0,0,4.93-4.934h0A4.931,4.931,0,0,0-5.474,6.009Z" transform="translate(0 4.762)" fill="#006283"/>
      <path id="Path_6795" data-name="Path 6795" d="M-20.07,14.306h-16.9l1.24-6.642h14.341Z" transform="translate(70.117 9.74)" fill="#beecf2"/>
      <path id="Path_6796" data-name="Path 6796" d="M-40.341,23.83-41,40.713l-6.589-1.5.563-14.33Z" transform="translate(38.153 58.365)" fill="#beecf2"/>
      <path id="Path_6797" data-name="Path 6797" d="M-7.024,14.306h-16.9l1.24-6.642H-8.339Z" transform="translate(109.357 9.74)" fill="#beecf2"/>
      <path id="Path_6798" data-name="Path 6798" d="M-25.705,36.149-38.294,22.074l-1.233,1.212,6.985,7.588.979,2.7Z" transform="translate(62.414 53.084)" fill="#beecf2"/>
      <rect id="Rectangle_1745" data-name="Rectangle 1745" width="32.313" height="2.303" transform="translate(77.977 75.624)" fill="#006283"/>
      <path id="Path_6799" data-name="Path 6799" d="M-43.711,24.465l3.256-1.426,6.145,7.01-1.082,2.709Z" transform="translate(49.829 55.986)" fill="#beecf2"/>
      <path id="Path_6800" data-name="Path 6800" d="M-16.485,11.427v-.946H-37.514v.946h2.321a8.4,8.4,0,0,0,2.268,4.9h-2.088l.613.946h2.5a8.343,8.343,0,0,0,4.99,1.7,8.325,8.325,0,0,0,5.042-1.7h2.445l.737-.946H-20.8a8.458,8.458,0,0,0,2.28-4.9Z" transform="translate(68.468 18.213)" fill="#beecf2"/>
      <path id="Path_6801" data-name="Path 6801" d="M-3.485,11.427v-.946H-24.514v.946h2.321a8.4,8.4,0,0,0,2.268,4.9h-2.092l.613.946h2.5a8.355,8.355,0,0,0,4.994,1.7,8.3,8.3,0,0,0,5.038-1.7h2.449l.737-.946H-7.8a8.453,8.453,0,0,0,2.276-4.9Z" transform="translate(107.57 18.213)" fill="#beecf2"/>
      <rect id="Rectangle_1746" data-name="Rectangle 1746" width="26.886" height="4.258" rx="0.496" transform="translate(-34.668 77.871) rotate(-90)" fill="#006283"/>
    </g>
  </g>
</svg>
