<svg xmlns="http://www.w3.org/2000/svg" xmlns:xlink="http://www.w3.org/1999/xlink" width="80.124" height="74.415" viewBox="0 0 80.124 74.415">
  <defs>
    <clipPath id="clip-path">
      <path id="Path_6745" data-name="Path 6745" d="M581.849,1821.813c-1.766-2.581-19.405-1.6-28.472-.887a24.107,24.107,0,1,0,8.952,25.566C573.438,1839.819,581.689,1825.009,581.849,1821.813Z" transform="translate(-514.918 -1816.19)" fill="none"/>
    </clipPath>
    <linearGradient id="linear-gradient" x1="0.618" y1="0.759" x2="0.389" y2="0.017" gradientUnits="objectBoundingBox">
      <stop offset="0.021" stop-color="#cb310f"/>
      <stop offset="0.131" stop-color="#e36e08"/>
      <stop offset="0.14" stop-color="#e06808"/>
      <stop offset="0.152" stop-color="#da580a"/>
      <stop offset="0.166" stop-color="#d03f0d"/>
      <stop offset="0.172" stop-color="#cb310f"/>
      <stop offset="0.225" stop-color="#d1420d"/>
      <stop offset="0.318" stop-color="#db5a0a"/>
      <stop offset="0.404" stop-color="#e16808"/>
      <stop offset="0.476" stop-color="#e36e08"/>
      <stop offset="0.537" stop-color="#df6808"/>
      <stop offset="0.614" stop-color="#d7580a"/>
      <stop offset="0.699" stop-color="#c83f0c"/>
      <stop offset="0.765" stop-color="#bb260f"/>
      <stop offset="0.804" stop-color="#e36e08"/>
      <stop offset="0.815" stop-color="#da5d09"/>
      <stop offset="0.836" stop-color="#cd420b"/>
      <stop offset="0.86" stop-color="#c32d0d"/>
      <stop offset="0.886" stop-color="#bc1f0f"/>
      <stop offset="0.917" stop-color="#b8160f"/>
      <stop offset="0.967" stop-color="#b71410"/>
    </linearGradient>
    <linearGradient id="linear-gradient-2" x1="-5.004" y1="-13.059" x2="-4.286" y2="-13.049" gradientUnits="objectBoundingBox">
      <stop offset="0.071" stop-color="#b71410" stop-opacity="0"/>
      <stop offset="0.238" stop-color="#6b170d"/>
      <stop offset="0.593" stop-color="#6b170d"/>
      <stop offset="0.636" stop-color="#73160d" stop-opacity="0.89"/>
      <stop offset="0.713" stop-color="#89150e" stop-opacity="0.592"/>
      <stop offset="0.815" stop-color="#ae140f" stop-opacity="0.118"/>
      <stop offset="0.838" stop-color="#b71410" stop-opacity="0"/>
    </linearGradient>
  </defs>
  <g id="Group_6723" data-name="Group 6723" transform="translate(-484.008 -1785.542)">
    <circle id="Ellipse_36" data-name="Ellipse 36" cx="21.182" cy="21.182" r="21.182" transform="translate(499.964 1801.567)" fill="#21adc7"/>
    <path id="Path_6735" data-name="Path 6735" d="M521.214,1786.2a36.544,36.544,0,1,0,36.545,36.545A36.544,36.544,0,0,0,521.214,1786.2Zm0,60.845a24.3,24.3,0,1,1,24.3-24.3A24.3,24.3,0,0,1,521.214,1847.05Z" transform="translate(0 -0.001)" fill="#004d70" stroke="#21adc7" stroke-miterlimit="10" stroke-width="1.323"/>
    <g id="Group_6715" data-name="Group 6715" transform="translate(484.672 1786.204)">
      <path id="Path_6736" data-name="Path 6736" d="M553.28,1805.2a36.418,36.418,0,1,0,3.954,11.323m-13.449,15.259a24.3,24.3,0,1,1-3.873-24.561" transform="translate(-484.675 -1786.204)" fill="none" stroke="#21adc7" stroke-miterlimit="10" stroke-width="1.323"/>
    </g>
    <g id="Group_6719" data-name="Group 6719" transform="translate(497.201 1798.626)">
      <g id="Group_6718" data-name="Group 6718" transform="translate(0 0)" clip-path="url(#clip-path)">
        <g id="Group_6717" data-name="Group 6717" transform="translate(-3.976 5.082)">
          <g id="Group_6716" data-name="Group 6716">
            <path id="Path_6737" data-name="Path 6737" d="M573.842,1829.578a3.928,3.928,0,0,0-2.262-.648c-4.465-.429-8.973-.467-13.46-.472a70.932,70.932,0,0,0-8.364.647c-3.178.375-6.067,1.725-8.99,2.94-.95.4-3.792,1.657-4.275,1.873-6.338,2.827-12.65,5.708-18.683,9.153a45.665,45.665,0,0,0-9.4,6.686c-2.6,2.524-3.843,5.512-2.612,9.035a34.146,34.146,0,0,0,1.607,3.781l.093.188a34.161,34.161,0,0,0,2.042,3.565c2.063,3.11,5.2,3.924,8.778,3.379a45.684,45.684,0,0,0,11.006-3.447c6.39-2.726,12.5-6.014,18.582-9.356.464-.255,3.187-1.756,4.076-2.274,2.735-1.594,5.556-3.081,7.775-5.386a70.962,70.962,0,0,0,5.57-6.273c2.707-3.579,5.4-7.193,7.757-11.01a3.925,3.925,0,0,0,.85-2.193c0-.043,0-.062.007-.105l-.011-.023C573.893,1829.613,573.878,1829.6,573.842,1829.578Zm-59.29,34.967a1.269,1.269,0,1,1-2.272,1.129l-4.421-8.9a1.269,1.269,0,0,1,2.273-1.128Zm36.828-12.866-23.623,12.086a1.374,1.374,0,1,1-1.252-2.447l23.623-12.086a1.374,1.374,0,1,1,1.252,2.447Zm-7.453-14.933-23.9,11.519a1.374,1.374,0,1,1-1.193-2.476l23.9-11.519a1.374,1.374,0,0,1,1.193,2.477Z" transform="translate(-505.32 -1828.458)" fill="url(#linear-gradient)"/>
            <path id="Path_6738" data-name="Path 6738" d="M580.276,1880.836l-23.623,12.086a1.374,1.374,0,1,1-1.252-2.447l23.623-12.086a1.374,1.374,0,1,1,1.252,2.447Z" transform="translate(-534.216 -1857.616)" fill="none" stroke="#cb310f" stroke-miterlimit="10" stroke-width="0.402"/>
            <path id="Path_6739" data-name="Path 6739" d="M561.927,1844.769l-23.9,11.519a1.374,1.374,0,1,1-1.193-2.476l23.9-11.519a1.374,1.374,0,0,1,1.193,2.477Z" transform="translate(-523.321 -1836.482)" fill="none" stroke="#cb310f" stroke-miterlimit="10" stroke-width="0.402"/>
            <path id="Path_6740" data-name="Path 6740" d="M517.955,1901.988a1.269,1.269,0,1,1-2.272,1.129l-4.421-8.9a1.269,1.269,0,0,1,2.273-1.129Z" transform="translate(-508.723 -1865.901)" fill="none" stroke="#cb310f" stroke-miterlimit="10" stroke-width="0.402"/>
            <path id="Path_6741" data-name="Path 6741" d="M596.673,1833.471a23.176,23.176,0,0,0-12.814,2.27c-1.985,1.037-37.035,17.867-37.035,17.867S587.163,1832.94,596.673,1833.471Z" transform="translate(-529.629 -1831.311)" fill="#fff"/>
            <path id="Path_6742" data-name="Path 6742" d="M565.5,1833.23a30.49,30.49,0,0,0-10.236,2.721c-1.1.5-25.756,11.98-25.756,11.98S560.354,1832.9,565.5,1833.23Z" transform="translate(-519.487 -1831.25)" fill="#fff" opacity="0.6"/>
            <path id="Path_6743" data-name="Path 6743" d="M588.754,1874.678a30.487,30.487,0,0,1-8.569,6.224c-1.085.541-25.544,12.425-25.544,12.425S585.764,1878.878,588.754,1874.678Z" transform="translate(-534.208 -1855.53)" fill="#fff" opacity="0.6"/>
          </g>
          <path id="Path_6744" data-name="Path 6744" d="M545.369,1865.236l-15.724,8.045a1.374,1.374,0,0,1-1.252-2.447l15.807-8.087c-1.992-4.276-3.958-8.565-6.022-12.805l-16.268,7.839a1.374,1.374,0,0,1-1.193-2.476l16.252-7.831c-.464-.927-.942-1.848-1.419-2.768-5.382,2.429-10.719,4.952-15.853,7.883a45.652,45.652,0,0,0-9.4,6.686,11.992,11.992,0,0,0-1.863,2.286c.513,1.126.958,2.283,1.406,3.452a1.251,1.251,0,0,1,.477-.423,1.272,1.272,0,0,1,1.7.572l4.42,8.9a1.265,1.265,0,0,1-1.8,1.639c.5,1.114.959,2.247,1.369,3.41a10.821,10.821,0,0,0,4.2.111,45.683,45.683,0,0,0,11.006-3.447c5.318-2.269,10.442-4.928,15.518-7.683Q546.045,1866.665,545.369,1865.236Z" transform="translate(-507.145 -1837.974)" opacity="0.3" fill="url(#linear-gradient-2)"/>
        </g>
      </g>
    </g>
    <circle id="Ellipse_37" data-name="Ellipse 37" cx="1.669" cy="1.669" r="1.669" transform="translate(492.553 1835.615)" fill="#fff"/>
    <g id="Group_6720" data-name="Group 6720" transform="translate(487.075 1788.703)">
      <path id="Path_6746" data-name="Path 6746" d="M497.669,1870.5a2.627,2.627,0,0,1,.243,1.02,3.645,3.645,0,0,1-.242,1.476,3.143,3.143,0,0,1-.75,1.122,3.456,3.456,0,0,1-1.15.72,4.28,4.28,0,0,1-1.442.279,4.422,4.422,0,0,1-1.485-.2,3.558,3.558,0,0,1-1.209-.653,3.141,3.141,0,0,1-.827-1.077,3.59,3.59,0,0,1-.33-1.46,3.458,3.458,0,0,1,.134-1.065,3.01,3.01,0,0,1,.457-.939,2.612,2.612,0,0,1,1.833-1.064l.042,1.494a1.5,1.5,0,0,0-.881.563,1.566,1.566,0,0,0-.271.974,1.818,1.818,0,0,0,.23.89,1.687,1.687,0,0,0,.564.582,2.4,2.4,0,0,0,.791.312,3.889,3.889,0,0,0,.909.079,3.629,3.629,0,0,0,.868-.129,2.347,2.347,0,0,0,.752-.355,1.714,1.714,0,0,0,.526-.613,1.824,1.824,0,0,0,.179-.9,1.525,1.525,0,0,0-1.581-1.649l.044,1.573-1.165.033-.085-2.987,3.842-.109.028,1-.8.182A2.349,2.349,0,0,1,497.669,1870.5Z" transform="translate(-490.474 -1836.856)" fill="#fff"/>
      <path id="Path_6747" data-name="Path 6747" d="M499.17,1849.821a3.914,3.914,0,0,1-1.08,4.334,2.719,2.719,0,0,1-2.279.246l-4.289-1.074.38-1.517,4.289,1.074a3.2,3.2,0,0,0,.563.089,1.105,1.105,0,0,0,.975-.428,1.8,1.8,0,0,0,.315-.707,1.466,1.466,0,0,0-.082-1.211,1.78,1.78,0,0,0-1.058-.593l-4.289-1.074.379-1.517,4.289,1.074A2.693,2.693,0,0,1,499.17,1849.821Z" transform="translate(-491.088 -1824.573)" fill="#fff"/>
      <path id="Path_6748" data-name="Path 6748" d="M500.839,1833.246l7.512,1.094-.782,1.423-1.646-.291-1.281,2.33,1.119,1.251-.758,1.379-4.937-5.78Zm3.866,2.022-2.718-.471-.01.017,1.841,2.068Z" transform="translate(-496.093 -1816.257)" fill="#fff"/>
      <path id="Path_6749" data-name="Path 6749" d="M510.969,1815.606a2.275,2.275,0,0,1,.7-.521,1.988,1.988,0,0,1,.759-.189,1.856,1.856,0,0,1,.74.122,2,2,0,0,1,.654.418,2.135,2.135,0,0,1,.609.936,1.657,1.657,0,0,1-.083,1.1l.014.014a1.207,1.207,0,0,1,.505-.181,1.363,1.363,0,0,1,.494.041,1.83,1.83,0,0,1,.478.211,4.291,4.291,0,0,1,.442.314q.131.109.3.259c.116.1.237.2.365.3a3.162,3.162,0,0,0,.384.252,1.042,1.042,0,0,0,.377.13l-1.072,1.139a2.769,2.769,0,0,1-.7-.437q-.36-.3-.714-.549a1.421,1.421,0,0,0-.826-.313,1.168,1.168,0,0,0-.769.439l-1.072,1.138,2.023,1.9-1.072,1.138-5.178-4.874Zm1.96,2.611a1.185,1.185,0,0,0,.379-.751,1,1,0,0,0-.382-.728.949.949,0,0,0-.732-.319,1.2,1.2,0,0,0-.723.427l-1.174,1.247,1.457,1.372Z" transform="translate(-500.939 -1805.508)" fill="#fff"/>
      <path id="Path_6750" data-name="Path 6750" d="M526.356,1803.756a3.673,3.673,0,0,1,1.206-.482,2.781,2.781,0,0,1,1.218.024,3.037,3.037,0,0,1,1.15.58,4.441,4.441,0,0,1,1.015,1.188,4.959,4.959,0,0,1,.58,1.327,3.16,3.16,0,0,1,.079,1.283,2.82,2.82,0,0,1-.464,1.167,3.4,3.4,0,0,1-1.067.975l-2.615,1.6-3.716-6.062Zm2.936,5a2,2,0,0,0,.5-.437,1.445,1.445,0,0,0,.295-.606,1.839,1.839,0,0,0-.007-.773,2.914,2.914,0,0,0-.394-.927,4.11,4.11,0,0,0-.6-.773,1.94,1.94,0,0,0-.681-.453,1.53,1.53,0,0,0-.786-.073,2.54,2.54,0,0,0-.914.368l-.951.583,2.342,3.821Z" transform="translate(-509.96 -1798.669)" fill="#fff"/>
      <path id="Path_6751" data-name="Path 6751" d="M543.043,1797.308l2.544,6.639-1.46.56-2.545-6.64Z" transform="translate(-520.41 -1795.207)" fill="#fff"/>
      <path id="Path_6752" data-name="Path 6752" d="M554.8,1793.708l3.989,6.459-1.592.315-.835-1.449-2.608.517-.24,1.661-1.543.306,1.257-7.5Zm.935,4.261-1.386-2.386-.019,0-.4,2.739Z" transform="translate(-526.492 -1793.099)" fill="#fff"/>
      <path id="Path_6753" data-name="Path 6753" d="M571.507,1792.333l2.666,4.945h.019l.3-4.761,1.461.091-.442,7.1-1.561-.1-2.656-4.935h-.02l-.3,4.751-1.461-.091.441-7.1Z" transform="translate(-536.77 -1792.237)" fill="#fff"/>
      <path id="Path_6754" data-name="Path 6754" d="M594.065,1796.271l-.406,1.25-3.571-1.16-.471,1.449,3.277,1.065-.376,1.155-3.276-1.065-.539,1.657,3.646,1.184-.406,1.251-5.133-1.668,2.2-6.762Z" transform="translate(-546.901 -1793.637)" fill="#fff"/>
      <path id="Path_6755" data-name="Path 6755" d="M603.614,1807.346a1.128,1.128,0,0,0,.084.523,1.478,1.478,0,0,0,.311.457,2.394,2.394,0,0,0,.472.374,3.1,3.1,0,0,0,.4.2,1.552,1.552,0,0,0,.453.118.975.975,0,0,0,.44-.053.685.685,0,0,0,.349-.306.622.622,0,0,0,.086-.5,1.461,1.461,0,0,0-.257-.506,4.855,4.855,0,0,0-.47-.531q-.277-.273-.552-.568a6.82,6.82,0,0,1-.537-.612,2.681,2.681,0,0,1-.385-.671,1.759,1.759,0,0,1-.115-.74,1.736,1.736,0,0,1,.275-.806,1.86,1.86,0,0,1,.694-.692,2.117,2.117,0,0,1,.872-.256,2.67,2.67,0,0,1,.939.1,3.627,3.627,0,0,1,.884.386,4.5,4.5,0,0,1,.85.662,2.669,2.669,0,0,1,.569.818,2.04,2.04,0,0,1,.171.937,2.187,2.187,0,0,1-.346,1.02l-1.293-.786a1.269,1.269,0,0,0,.16-.521.884.884,0,0,0-.089-.439,1.282,1.282,0,0,0-.282-.369,2.643,2.643,0,0,0-.43-.319,1.8,1.8,0,0,0-.344-.163,1,1,0,0,0-.366-.059.856.856,0,0,0-.346.081.667.667,0,0,0-.282.271.639.639,0,0,0-.108.331.711.711,0,0,0,.144.367,3.987,3.987,0,0,0,.439.523q.3.308.779.8.15.138.4.411a2.636,2.636,0,0,1,.427.65,2.129,2.129,0,0,1,.2.836,1.747,1.747,0,0,1-.292.97,2.177,2.177,0,0,1-.633.676,1.974,1.974,0,0,1-.856.325,2.705,2.705,0,0,1-1.037-.077,4.378,4.378,0,0,1-1.182-.52,4.5,4.5,0,0,1-.9-.716,2.868,2.868,0,0,1-.6-.894,2.24,2.24,0,0,1-.166-1.021,2.353,2.353,0,0,1,.385-1.095l1.293.786A1.307,1.307,0,0,0,603.614,1807.346Z" transform="translate(-555.877 -1798.411)" fill="#fff"/>
    </g>
    <g id="Group_6721" data-name="Group 6721" transform="translate(501.791 1830.102)">
      <path id="Path_6756" data-name="Path 6756" d="M532.253,1927.094a3.586,3.586,0,0,1,.951.848,2.729,2.729,0,0,1,.512,1.081,2.98,2.98,0,0,1-.007,1.264,4.35,4.35,0,0,1-.6,1.412,4.826,4.826,0,0,1-.913,1.091,3.106,3.106,0,0,1-1.092.632,2.766,2.766,0,0,1-1.229.1,3.335,3.335,0,0,1-1.324-.51l-2.554-1.6,3.7-5.92Zm-3.109,4.768a1.974,1.974,0,0,0,.6.25,1.424,1.424,0,0,0,.662-.007,1.8,1.8,0,0,0,.677-.344,2.868,2.868,0,0,0,.643-.751,4.062,4.062,0,0,0,.418-.863,1.905,1.905,0,0,0,.1-.8,1.5,1.5,0,0,0-.28-.723,2.478,2.478,0,0,0-.723-.642l-.928-.581-2.333,3.731Z" transform="translate(-525.997 -1911.689)" fill="#fff"/>
      <path id="Path_6757" data-name="Path 6757" d="M553.821,1936.258l-.349,1.242-3.549-1-.4,1.44,3.257.915-.323,1.148-3.257-.915-.462,1.647,3.624,1.018-.349,1.243-5.1-1.433,1.887-6.722Z" transform="translate(-538.244 -1917.165)" fill="#fff"/>
      <path id="Path_6758" data-name="Path 6758" d="M573.75,1938.79l.322,5.681,3.4-.193.073,1.289-4.93.28-.4-6.971Z" transform="translate(-553.07 -1919.475)" fill="#fff"/>
      <path id="Path_6759" data-name="Path 6759" d="M592.764,1935.07l4.657,5.821-1.514.5-.986-1.312-2.481.814-.036,1.648-1.468.482.332-7.457Zm1.418,4.043-1.635-2.16-.019.006-.065,2.718Z" transform="translate(-564.033 -1917.296)" fill="#fff"/>
      <path id="Path_6760" data-name="Path 6760" d="M610.483,1923.493a2.907,2.907,0,0,1,.991-.545,2.094,2.094,0,0,1,.9-.071,1.933,1.933,0,0,1,.773.3,2.665,2.665,0,0,1,1.032,1.3,1.924,1.924,0,0,1,.118.824,2.079,2.079,0,0,1-.272.859,2.907,2.907,0,0,1-.754.843l-1.263,1,1.558,1.959-1.2.956-4.345-5.465Zm1.715,2.833a3.247,3.247,0,0,0,.374-.347,1.188,1.188,0,0,0,.242-.387.827.827,0,0,0,.036-.434,1.34,1.34,0,0,0-.669-.842.829.829,0,0,0-.431-.063,1.192,1.192,0,0,0-.431.149,3.262,3.262,0,0,0-.423.286l-.933.743,1.3,1.638Z" transform="translate(-574.039 -1910.142)" fill="#fff"/>
      <path id="Path_6761" data-name="Path 6761" d="M620.828,1916.074l5.26,4.591-1.01,1.157-5.26-4.591Z" transform="translate(-580.951 -1906.17)" fill="#fff"/>
      <path id="Path_6762" data-name="Path 6762" d="M627.06,1903.007l1.105.667-1.9,3.157,1.281.773,1.747-2.9,1.022.616-1.747,2.9,1.465.884,1.944-3.224,1.105.667-2.737,4.538-5.978-3.606Z" transform="translate(-583.612 -1898.516)" fill="#fff"/>
      <path id="Path_6763" data-name="Path 6763" d="M632.674,1893.773l5.446,1.651.987-3.257,1.235.375-1.433,4.726-6.681-2.025Z" transform="translate(-588.22 -1892.167)" fill="#fff"/>
    </g>
  </g>
</svg>
