<svg xmlns="http://www.w3.org/2000/svg" width="200" height="162.437" viewBox="0 0 200 162.437">
  <g id="Group_6766" data-name="Group 6766" transform="translate(122.12 -0.139)">
    <rect id="Rectangle_1733" data-name="Rectangle 1733" width="145.059" height="20.683" rx="2.598" transform="translate(-67.18 91.29)" fill="#beecf2"/>
    <g id="Group_6765" data-name="Group 6765" transform="translate(-62.634 38.954)">
      <g id="Group_6763" data-name="Group 6763" transform="translate(0 34.374)">
        <rect id="Rectangle_1734" data-name="Rectangle 1734" width="60.912" height="13.649" rx="1.773" transform="translate(23.228 6.317)" fill="#006283"/>
        <rect id="Rectangle_1735" data-name="Rectangle 1735" width="60.912" height="9.407" rx="1.222" transform="translate(75.614 8.438)" fill="#006283"/>
        <rect id="Rectangle_1736" data-name="Rectangle 1736" width="35.105" height="9.367" rx="1.216" transform="matrix(0.902, 0.433, -0.433, 0.902, 26.905, 8.638)" fill="#006283"/>
        <rect id="Rectangle_1737" data-name="Rectangle 1737" width="30.492" height="9.367" rx="1.216" transform="translate(46.64 22.515) rotate(-13.662)" fill="#006283"/>
        <path id="Path_6781" data-name="Path 6781" d="M-108.792,28.642A10.274,10.274,0,0,1-98.512,18.45a10.3,10.3,0,0,1,10.2,10.288A10.237,10.237,0,0,1-98.608,38.9,10.212,10.212,0,0,1-108.792,28.642Z" transform="translate(108.792 -18.45)" fill="#006283"/>
      </g>
      <g id="Group_6764" data-name="Group 6764" transform="translate(51.208)">
        <path id="Path_6782" data-name="Path 6782" d="M-90.031,43.9l3.219-4.37-2.2-.008v-30c-.343.012-1.721.012-2.064,0V39.507L-93.2,39.5Z" transform="translate(102.036 -9.522)" fill="#ef8c22"/>
        <path id="Path_6783" data-name="Path 6783" d="M-92.327,43.9l3.215-4.37-2.2-.008v-30c-.343.012-1.717.012-2.064,0V39.507l-2.114-.008Z" transform="translate(95.492 -9.522)" fill="#ef8c22"/>
        <path id="Path_6784" data-name="Path 6784" d="M-87.656,43.9l3.219-4.37-2.2-.008v-30c-.343.012-1.717.012-2.064,0V39.507l-2.118-.008Z" transform="translate(108.805 -9.522)" fill="#ef8c22"/>
      </g>
    </g>
    <path id="Path_6785" data-name="Path 6785" d="M-122.119,114.912l12.813-62.2a5.306,5.306,0,0,1,.967-2.132L-71.769,2.242a5.308,5.308,0,0,1,4.231-2.1H28.806a5.3,5.3,0,0,1,5.3,5.3V17.107a5.3,5.3,0,0,1-5.3,5.3h-10a5.3,5.3,0,0,0-5.3,5.3h0a5.3,5.3,0,0,1-5.3,5.3H-13.254a5.3,5.3,0,0,1-5.3-5.3V25.946a5.3,5.3,0,0,0-5.3-5.3H-46.544c-2.288,0-3.36,1.582-5.038,3.641L-70.123,51.436a24.353,24.353,0,0,0-4.018,10.413l-1.983,42.133c-.124,6.258,6.081,11.645,12.34,11.621l131.861-.45a9.768,9.768,0,0,1,9.8,9.77v22.825a14.829,14.829,0,0,1-14.828,14.828H-107.258a14.829,14.829,0,0,1-14.832-14.86l.068-32.687A.1.1,0,0,1-122.119,114.912Z" transform="translate(0 0)" fill="#006283"/>
    <ellipse id="Ellipse_44" data-name="Ellipse 44" cx="11.641" cy="2.967" rx="11.641" ry="2.967" transform="translate(-14.217 22.857)" fill="#ef8c22"/>
  </g>
</svg>
